<?xml version="1.0" encoding="iso-8859-1"?>
<!-- Generator: Adobe Illustrator 18.0.0, SVG Export Plug-In . SVG Version: 6.00 Build 0)  -->
<!DOCTYPE svg PUBLIC "-//W3C//DTD SVG 1.1//EN" "http://www.w3.org/Graphics/SVG/1.1/DTD/svg11.dtd">
<svg version="1.1" id="Capa_1" xmlns="http://www.w3.org/2000/svg" xmlns:xlink="http://www.w3.org/1999/xlink" x="0px" y="0px"
	 viewBox="0 0 60 60" style="enable-background:new 0 0 60 60;" xml:space="preserve">
<g>
	<path style="fill:#7383BF;" d="M4,60c-0.553,0-1-0.447-1-1V7c0-0.553,0.447-1,1-1s1,0.447,1,1v52C5,59.553,4.553,60,4,60z"/>
	<path style="fill:#7383BF;" d="M59,5H7C6.447,5,6,4.553,6,4s0.447-1,1-1h52c0.553,0,1,0.447,1,1S59.553,5,59,5z"/>
	<g>
		<rect x="1" y="1" style="fill:#556080;" width="6" height="6"/>
		<path style="fill:#556080;" d="M8,8H0V0h8V8z M2,6h4V2H2V6z"/>
	</g>
	<g>
		<circle style="fill:#EB7937;" cx="13" cy="13" r="4"/>
		<path style="fill:#EB7937;" d="M13,18c-2.757,0-5-2.243-5-5s2.243-5,5-5s5,2.243,5,5S15.757,18,13,18z M13,10
			c-1.654,0-3,1.346-3,3s1.346,3,3,3s3-1.346,3-3S14.654,10,13,10z"/>
	</g>
	<circle style="fill:#FFFFFF;" cx="13" cy="13" r="1"/>
	<path style="fill:#434C6D;" d="M52.079,43.047L36.984,25.351c-0.25-0.293-0.646-0.418-1.02-0.316
		c-0.373,0.1-0.654,0.405-0.725,0.784l-4.224,22.873c-0.08,0.434,0.134,0.869,0.525,1.07c0.145,0.075,0.302,0.111,0.458,0.111
		c0.265,0,0.525-0.105,0.719-0.305l6.879-7.115l3.484,13.003c0.119,0.447,0.523,0.741,0.965,0.741c0.086,0,0.173-0.011,0.26-0.034
		c0.533-0.143,0.85-0.691,0.707-1.225l-3.484-13.003l9.514,2.722c0.425,0.117,0.877-0.051,1.116-0.421
		C52.398,43.866,52.365,43.383,52.079,43.047z"/>
</g>
<g>
</g>
<g>
</g>
<g>
</g>
<g>
</g>
<g>
</g>
<g>
</g>
<g>
</g>
<g>
</g>
<g>
</g>
<g>
</g>
<g>
</g>
<g>
</g>
<g>
</g>
<g>
</g>
<g>
</g>
</svg>
