<?xml version="1.0" encoding="iso-8859-1"?>
<!-- Generator: Adobe Illustrator 18.0.0, SVG Export Plug-In . SVG Version: 6.00 Build 0)  -->
<!DOCTYPE svg PUBLIC "-//W3C//DTD SVG 1.1//EN" "http://www.w3.org/Graphics/SVG/1.1/DTD/svg11.dtd">
<svg version="1.1" id="Capa_1" xmlns="http://www.w3.org/2000/svg" xmlns:xlink="http://www.w3.org/1999/xlink" x="0px" y="0px"
	 viewBox="0 0 60 60" style="enable-background:new 0 0 60 60;" xml:space="preserve">
<g>
	<g>
		<rect x="8" y="8" style="fill:#E7ECED;" width="44" height="44"/>
		<path style="fill:#26B99A;" d="M53,53H7V7h46V53z M9,51h42V9H9V51z"/>
	</g>
	<path style="fill:#556080;" d="M8,5C7.448,5,7,4.553,7,4V1c0-0.553,0.448-1,1-1s1,0.447,1,1v3C9,4.553,8.552,5,8,5z"/>
	<path style="fill:#556080;" d="M8,60c-0.552,0-1-0.447-1-1v-3c0-0.553,0.448-1,1-1s1,0.447,1,1v3C9,59.553,8.552,60,8,60z"/>
	<path style="fill:#556080;" d="M52,5c-0.552,0-1-0.447-1-1V1c0-0.553,0.448-1,1-1s1,0.447,1,1v3C53,4.553,52.552,5,52,5z"/>
	<path style="fill:#556080;" d="M52,60c-0.552,0-1-0.447-1-1v-3c0-0.553,0.448-1,1-1s1,0.447,1,1v3C53,59.553,52.552,60,52,60z"/>
	<path style="fill:#556080;" d="M59,9h-3c-0.552,0-1-0.447-1-1s0.448-1,1-1h3c0.552,0,1,0.447,1,1S59.552,9,59,9z"/>
	<path style="fill:#556080;" d="M4,9H1C0.448,9,0,8.553,0,8s0.448-1,1-1h3c0.552,0,1,0.447,1,1S4.552,9,4,9z"/>
	<path style="fill:#556080;" d="M59,53h-3c-0.552,0-1-0.447-1-1s0.448-1,1-1h3c0.552,0,1,0.447,1,1S59.552,53,59,53z"/>
	<path style="fill:#556080;" d="M4,53H1c-0.552,0-1-0.447-1-1s0.448-1,1-1h3c0.552,0,1,0.447,1,1S4.552,53,4,53z"/>
</g>
<g>
</g>
<g>
</g>
<g>
</g>
<g>
</g>
<g>
</g>
<g>
</g>
<g>
</g>
<g>
</g>
<g>
</g>
<g>
</g>
<g>
</g>
<g>
</g>
<g>
</g>
<g>
</g>
<g>
</g>
</svg>
