<?xml version="1.0" encoding="iso-8859-1"?>
<!-- Generator: Adobe Illustrator 18.0.0, SVG Export Plug-In . SVG Version: 6.00 Build 0)  -->
<!DOCTYPE svg PUBLIC "-//W3C//DTD SVG 1.1//EN" "http://www.w3.org/Graphics/SVG/1.1/DTD/svg11.dtd">
<svg version="1.1" id="Capa_1" xmlns="http://www.w3.org/2000/svg" xmlns:xlink="http://www.w3.org/1999/xlink" x="0px" y="0px"
	 viewBox="0 0 50.971 50.971" style="enable-background:new 0 0 50.971 50.971;" xml:space="preserve">
<g>
	<g>
		<path style="fill:#26B99A;" d="M13.887,10.939L14.799,6l3.104,3.639c0.974-0.912,1.591-2.2,1.591-3.639c0-2.761-2.239-5-5-5
			s-5,2.239-5,5C9.494,8.553,11.415,10.636,13.887,10.939z"/>
		<path style="fill:#26B99A;" d="M13.888,11.938c-0.041,0-0.082-0.002-0.123-0.008C10.76,11.563,8.494,9.013,8.494,6
			c0-3.309,2.691-6,6-6s6,2.691,6,6c0,1.665-0.677,3.217-1.906,4.369c-0.2,0.187-0.469,0.282-0.74,0.269
			c-0.273-0.015-0.528-0.142-0.705-0.349l-1.742-2.042L14.87,11.12C14.782,11.6,14.364,11.938,13.888,11.938z M14.494,2
			c-2.206,0-4,1.794-4,4c0,1.686,1.069,3.153,2.601,3.724l0.721-3.905c0.07-0.379,0.352-0.685,0.725-0.784
			c0.371-0.102,0.769,0.022,1.02,0.316l2.336,2.739c0.39-0.623,0.598-1.34,0.598-2.09C18.494,3.794,16.7,2,14.494,2z"/>
	</g>
	<polygon style="fill:#556080;" points="14.799,6 6.494,50.971 22.432,34.487 44.477,40.793 	"/>
</g>
<g>
</g>
<g>
</g>
<g>
</g>
<g>
</g>
<g>
</g>
<g>
</g>
<g>
</g>
<g>
</g>
<g>
</g>
<g>
</g>
<g>
</g>
<g>
</g>
<g>
</g>
<g>
</g>
<g>
</g>
</svg>
