<?xml version="1.0" encoding="iso-8859-1"?>
<!-- Generator: Adobe Illustrator 18.0.0, SVG Export Plug-In . SVG Version: 6.00 Build 0)  -->
<!DOCTYPE svg PUBLIC "-//W3C//DTD SVG 1.1//EN" "http://www.w3.org/Graphics/SVG/1.1/DTD/svg11.dtd">
<svg version="1.1" id="Capa_1" xmlns="http://www.w3.org/2000/svg" xmlns:xlink="http://www.w3.org/1999/xlink" x="0px" y="0px"
	 viewBox="0 0 60 60" style="enable-background:new 0 0 60 60;" xml:space="preserve">
<g>
	<g>
		<polygon style="fill:#7383BF;" points="37,36 23,36 23,43 14,43 30,59 46,43 37,43 		"/>
		<polygon style="fill:#7383BF;" points="37,1 23,1 1,1 1,15 23,15 23,22 37,22 37,15 59,15 59,1 		"/>
	</g>
	<g>
		<rect x="1" y="22" style="fill:#26B99A;" width="58" height="14"/>
		<path style="fill:#26B99A;" d="M59,37H1c-0.552,0-1-0.447-1-1V22c0-0.553,0.448-1,1-1h58c0.552,0,1,0.447,1,1v14
			C60,36.553,59.552,37,59,37z M2,35h56V23H2V35z"/>
	</g>
</g>
<g>
</g>
<g>
</g>
<g>
</g>
<g>
</g>
<g>
</g>
<g>
</g>
<g>
</g>
<g>
</g>
<g>
</g>
<g>
</g>
<g>
</g>
<g>
</g>
<g>
</g>
<g>
</g>
<g>
</g>
</svg>
